<?xml version="1.0" encoding="utf-8"?>
<!-- Generator: Adobe Illustrator 25.1.0, SVG Export Plug-In . SVG Version: 6.00 Build 0)  -->
<svg version="1.1" id="Layer_1" xmlns="http://www.w3.org/2000/svg" xmlns:xlink="http://www.w3.org/1999/xlink" x="0px" y="0px"
	 viewBox="0 0 4687.67 2722.61" style="enable-background:new 0 0 4687.67 2722.61;" xml:space="preserve">
<style type="text/css">
	.st0{fill:#AAABAA;}
	.st1{fill:#FFC845;}
	.st2{fill:#FFD26F;}
	.st3{fill:#FFE6B3;}
	.st4{fill:#14A2DC;}
	.st5{fill:#1F6E90;}
	.st6{fill:#84BD41;}
	.st7{fill:#7EA055;}
	.st8{fill:#FFFFFF;stroke:#000000;stroke-miterlimit:10;}
	.st9{fill:#AED2EF;}
	.st10{fill:#5DB0E2;}
	.st11{fill:#FFFFFF;}
	.st12{fill:#063243;}
	.st13{fill:#14A2DC;stroke:#000000;stroke-miterlimit:10;}
	.st14{fill:#1F6E90;stroke:#000000;stroke-miterlimit:10;}
	.st15{fill:#C8A85F;}
	.st16{fill:#9CC762;}
	.st17{fill:#B3D388;}
	.st18{fill:#4A7135;}
	.st19{fill:#525D48;}
	.st20{fill:#2A3320;}
	.st21{fill:#74A159;}
	.st22{fill:#395527;}
	.st23{fill:#CBDFAC;}
	.st24{fill:#454942;}
</style>
<path class="st0" d="M689.03,2117.16h3072.24c38.65,0,69.99-35.96,69.99-80.32v0c0-44.36-31.34-80.32-69.99-80.32H689.03
	c-38.65,0-69.99,35.96-69.99,80.32v0C619.04,2081.2,650.38,2117.16,689.03,2117.16z"/>
<rect x="1563.29" y="456.94" class="st1" width="909.23" height="1530.41"/>
<rect x="2132.84" y="456.54" class="st2" width="339.68" height="1526.83"/>
<g>
	<rect x="2183.93" y="544.68" class="st1" width="222.35" height="57.58"/>
	<rect x="2183.93" y="1313.12" class="st1" width="222.35" height="57.58"/>
	<rect x="2183.52" y="1227.12" class="st1" width="222.35" height="57.58"/>
	<rect x="2183.52" y="1142.51" class="st1" width="222.35" height="57.58"/>
	<rect x="2183.52" y="1057.9" class="st1" width="222.35" height="57.58"/>
	<rect x="2183.52" y="973.29" class="st1" width="222.35" height="57.58"/>
	<rect x="2183.52" y="888.68" class="st1" width="222.35" height="57.58"/>
	<rect x="2183.93" y="802.68" class="st1" width="222.35" height="57.58"/>
	<rect x="2183.93" y="716.68" class="st1" width="222.35" height="57.58"/>
	<rect x="2183.52" y="630.68" class="st1" width="222.35" height="57.58"/>
	<rect x="2183.49" y="1743.12" class="st1" width="222.35" height="57.58"/>
	<rect x="2183.93" y="1657.12" class="st1" width="222.35" height="57.58"/>
	<rect x="2183.93" y="1571.12" class="st1" width="222.35" height="57.58"/>
	<rect x="2183.49" y="1485.12" class="st1" width="222.35" height="57.58"/>
	<rect x="2183.52" y="1399.12" class="st1" width="222.35" height="57.58"/>
</g>
<g>
	<rect x="1687.42" y="544.68" class="st3" width="322.85" height="57.58"/>
	<rect x="1687.42" y="1313.12" class="st3" width="322.85" height="57.58"/>
	<rect x="1686.83" y="1227.12" class="st3" width="322.85" height="57.58"/>
	<rect x="1686.83" y="1142.51" class="st3" width="322.85" height="57.58"/>
	<rect x="1686.83" y="1057.9" class="st3" width="322.85" height="57.58"/>
	<rect x="1686.83" y="973.29" class="st3" width="322.85" height="57.58"/>
	<rect x="1686.83" y="888.68" class="st3" width="322.85" height="57.58"/>
	<rect x="1687.42" y="802.68" class="st3" width="322.85" height="57.58"/>
	<rect x="1687.42" y="716.68" class="st3" width="322.85" height="57.58"/>
	<rect x="1686.83" y="630.68" class="st3" width="322.85" height="57.58"/>
	<rect x="1686.78" y="1743.12" class="st3" width="322.85" height="57.58"/>
	<rect x="1687.42" y="1657.12" class="st3" width="322.85" height="57.58"/>
	<rect x="1687.42" y="1571.12" class="st3" width="322.85" height="57.58"/>
	<rect x="1686.78" y="1485.12" class="st3" width="322.85" height="57.58"/>
</g>
<rect x="1687.42" y="1396.95" class="st3" width="322.85" height="57.58"/>
<rect x="2452.86" y="1322.65" class="st4" width="537.12" height="666.47"/>
<rect x="2989.98" y="1297.15" class="st5" width="156.1" height="691.97"/>
<rect x="2989.98" y="987.08" class="st5" width="156.1" height="310.07"/>
<rect x="2452.86" y="1003.15" class="st4" width="537.12" height="294"/>
<rect x="2425.67" y="1281.15" class="st6" width="682.31" height="44"/>
<rect x="2989.98" y="1281.15" class="st7" width="156.1" height="44"/>
<rect x="2989.98" y="949.15" class="st8" width="178.46" height="37.93"/>
<rect x="2625.11" y="1340.15" class="st9" width="75" height="172"/>
<rect x="2510.48" y="1340.15" class="st9" width="75" height="172"/>
<rect x="2864.48" y="1340.15" class="st9" width="75" height="172"/>
<rect x="2739.73" y="1340.15" class="st9" width="75" height="172"/>
<rect x="2510.48" y="1340.15" class="st5" width="13.5" height="172"/>
<rect x="2625.11" y="1340.15" class="st5" width="13.5" height="172"/>
<rect x="2739.73" y="1340.15" class="st5" width="13.5" height="172"/>
<rect x="2864.48" y="1340.15" class="st5" width="13.5" height="172"/>
<rect x="2850.98" y="1512.15" class="st10" width="88.5" height="18"/>
<rect x="2726.23" y="1512.15" class="st10" width="88.5" height="18"/>
<rect x="2611.61" y="1512.15" class="st10" width="88.5" height="18"/>
<rect x="2496.98" y="1512.15" class="st10" width="88.5" height="18"/>
<rect x="2567.48" y="1512.15" class="st5" width="18" height="18"/>
<rect x="2682.11" y="1512.15" class="st5" width="18" height="18"/>
<rect x="2796.73" y="1512.15" class="st5" width="18" height="18"/>
<rect x="2921.48" y="1512.15" class="st5" width="18" height="18"/>
<rect x="2510.48" y="1530.15" class="st5" width="75" height="10"/>
<rect x="2625.11" y="1530.15" class="st5" width="75" height="10"/>
<rect x="2739.73" y="1530.15" class="st5" width="75" height="10"/>
<rect x="2864.48" y="1530.15" class="st5" width="75" height="10"/>
<path class="st11" d="M2523.98,1486.15c20.67-20.67,41.33-41.33,62-62c-0.17-21-0.33-42-0.5-63c-20.5,19.33-41,38.67-61.5,58
	C2523.98,1441.48,2523.98,1463.81,2523.98,1486.15z"/>
<path class="st11" d="M2877.98,1488.65c20.67-20.67,41.33-41.33,62-62c-0.17-21-0.33-42-0.5-63c-20.5,19.33-41,38.67-61.5,58
	C2877.98,1443.98,2877.98,1466.31,2877.98,1488.65z"/>
<path class="st11" d="M2753.24,1488.64c20.66-20.67,41.33-41.33,61.99-62c0.36-20.47,0.72-40.94,1.09-61.41
	c-20.47,19.36-40.94,38.72-61.41,58.08C2754.36,1445.09,2753.8,1466.87,2753.24,1488.64z"/>
<path class="st11" d="M2638.61,1486.15c20.67-20.67,41.33-41.33,62-62c-0.17-21-0.33-42-0.5-63c-20.5,19.33-41,38.67-61.5,58
	C2638.61,1441.48,2638.61,1463.81,2638.61,1486.15z"/>
<rect x="2625.11" y="1041.15" class="st9" width="75" height="172"/>
<rect x="2510.48" y="1041.15" class="st9" width="75" height="172"/>
<rect x="2864.48" y="1041.15" class="st9" width="75" height="172"/>
<rect x="2739.73" y="1041.15" class="st9" width="75" height="172"/>
<rect x="2510.48" y="1041.15" class="st5" width="13.5" height="172"/>
<rect x="2625.11" y="1041.15" class="st5" width="13.5" height="172"/>
<rect x="2739.73" y="1041.15" class="st5" width="13.5" height="172"/>
<rect x="2864.48" y="1041.15" class="st5" width="13.5" height="172"/>
<rect x="2850.98" y="1213.15" class="st10" width="88.5" height="18"/>
<rect x="2726.23" y="1213.15" class="st10" width="88.5" height="18"/>
<rect x="2611.61" y="1213.15" class="st10" width="88.5" height="18"/>
<rect x="2496.98" y="1213.15" class="st10" width="88.5" height="18"/>
<rect x="2567.48" y="1213.15" class="st5" width="18" height="18"/>
<rect x="2682.11" y="1213.15" class="st5" width="18" height="18"/>
<rect x="2796.73" y="1213.15" class="st5" width="18" height="18"/>
<rect x="2921.48" y="1213.15" class="st5" width="18" height="18"/>
<rect x="2510.48" y="1231.15" class="st5" width="75" height="10"/>
<rect x="2625.11" y="1231.15" class="st5" width="75" height="10"/>
<rect x="2739.73" y="1231.15" class="st5" width="75" height="10"/>
<rect x="2864.48" y="1231.15" class="st5" width="75" height="10"/>
<path class="st11" d="M2523.98,1187.15c20.67-20.67,41.33-41.33,62-62c-0.17-21-0.33-42-0.5-63c-20.5,19.33-41,38.67-61.5,58
	C2523.98,1142.48,2523.98,1164.81,2523.98,1187.15z"/>
<path class="st11" d="M2877.98,1189.65c20.67-20.67,41.33-41.33,62-62c-0.17-21-0.33-42-0.5-63c-20.5,19.33-41,38.67-61.5,58
	C2877.98,1144.98,2877.98,1167.31,2877.98,1189.65z"/>
<path class="st11" d="M2753.23,1189.65c20.67-20.67,41.33-41.33,62-62c-0.17-21-0.33-42-0.5-63c-20.5,19.33-41,38.67-61.5,58
	C2753.23,1144.98,2753.23,1167.31,2753.23,1189.65z"/>
<path class="st11" d="M2638.61,1187.15c20.67-20.67,41.33-41.33,62-62c-0.17-21-0.33-42-0.5-63c-20.5,19.33-41,38.67-61.5,58
	C2638.61,1142.48,2638.61,1164.81,2638.61,1187.15z"/>
<rect x="2452.86" y="981.11" class="st12" width="537.12" height="22.03"/>
<rect x="2989.98" y="981.11" width="156.1" height="22.03"/>
<rect x="2517.23" y="872.2" class="st4" width="472.75" height="76.94"/>
<rect x="2989.98" y="867.2" class="st5" width="132.8" height="81.94"/>
<rect x="2505.62" y="832.29" class="st6" width="625.8" height="39.92"/>
<rect x="2641.47" y="1655.48" class="st12" width="196.27" height="381.83"/>
<path class="st5" d="M2945.12,2037.31c-72.1,0-144.2,0-216.3,0c60.71-80.72,121.43-161.44,182.14-242.17c11.9,0,23.79,0,35.69,0
	C2946.15,1875.86,2945.63,1956.58,2945.12,2037.31z"/>
<path class="st5" d="M2639.95,2037.57c-71.43,0-142.85,0-214.28,0c60.15-80.72,120.29-161.44,180.44-242.17c11.79,0,23.57,0,35.36,0
	C2640.96,1876.13,2640.46,1956.85,2639.95,2037.57z"/>
<path class="st10" d="M2427.69,2037.84c59.78-80.9,119.57-161.8,179.35-242.7c-16.08,0.09-32.16,0.18-48.25,0.27
	c-44.38,63.41-88.75,126.81-133.13,190.22C2426.34,2003.03,2427.02,2020.44,2427.69,2037.84z"/>
<rect x="2545.02" y="1934.78" class="st9" width="222.26" height="54.53"/>
<rect x="2425.67" y="1988.85" class="st4" width="38.46" height="47.99"/>
<rect x="2500.84" y="1989.31" class="st12" width="227.98" height="47.99"/>
<rect x="2576.3" y="1880.26" class="st4" width="225.01" height="54.53"/>
<path class="st10" d="M2730.84,2037.57c59.78-80.9,119.57-161.8,179.35-242.7c-16.08,0.09-32.16,0.18-48.25,0.27
	c-44.38,63.41-88.75,126.81-133.13,190.22C2729.49,2002.77,2730.17,2020.17,2730.84,2037.57z"/>
<rect x="2728.82" y="1989.31" class="st4" width="38.46" height="47.99"/>
<rect x="3111.19" y="1322.24" class="st4" width="537.12" height="666.47"/>
<rect x="3648.32" y="1322.24" class="st5" width="156.1" height="666.47"/>
<rect x="3648.32" y="986.67" class="st5" width="156.1" height="310.07"/>
<rect x="3111.19" y="1002.74" class="st13" width="537.12" height="294"/>
<rect x="3648.32" y="948.74" class="st8" width="178.46" height="37.93"/>
<rect x="3082.89" y="1283.12" class="st6" width="682.31" height="42.02"/>
<rect x="3283.44" y="1339.74" class="st9" width="75" height="172"/>
<rect x="3168.82" y="1339.74" class="st9" width="75" height="172"/>
<rect x="3522.82" y="1339.74" class="st9" width="75" height="172"/>
<rect x="3398.07" y="1339.74" class="st9" width="75" height="172"/>
<rect x="3168.82" y="1339.74" class="st5" width="13.5" height="172"/>
<rect x="3283.44" y="1339.74" class="st5" width="13.5" height="172"/>
<rect x="3398.07" y="1339.74" class="st5" width="13.5" height="172"/>
<rect x="3522.82" y="1339.74" class="st5" width="13.5" height="172"/>
<rect x="3509.32" y="1511.74" class="st10" width="88.5" height="18"/>
<rect x="3384.57" y="1511.74" class="st10" width="88.5" height="18"/>
<rect x="3269.94" y="1511.74" class="st10" width="88.5" height="18"/>
<rect x="3155.32" y="1511.74" class="st10" width="88.5" height="18"/>
<rect x="3225.82" y="1511.74" class="st5" width="18" height="18"/>
<rect x="3340.44" y="1511.74" class="st5" width="18" height="18"/>
<rect x="3455.07" y="1511.74" class="st5" width="18" height="18"/>
<rect x="3579.82" y="1511.74" class="st5" width="18" height="18"/>
<rect x="3168.82" y="1529.74" class="st5" width="75" height="10"/>
<rect x="3283.44" y="1529.74" class="st5" width="75" height="10"/>
<rect x="3398.07" y="1529.74" class="st5" width="75" height="10"/>
<rect x="3522.82" y="1529.74" class="st5" width="75" height="10"/>
<path class="st11" d="M3182.32,1485.74c20.67-20.67,41.33-41.33,62-62c-0.17-21-0.33-42-0.5-63c-20.5,19.33-41,38.67-61.5,58
	C3182.32,1441.08,3182.32,1463.41,3182.32,1485.74z"/>
<path class="st11" d="M3536.32,1488.24c20.67-20.67,41.33-41.33,62-62c-0.17-21-0.33-42-0.5-63c-20.5,19.33-41,38.67-61.5,58
	C3536.32,1443.58,3536.32,1465.91,3536.32,1488.24z"/>
<path class="st11" d="M3411.57,1488.24c20.67-20.67,41.33-41.33,62-62c-0.17-21-0.33-42-0.5-63c-20.5,19.33-41,38.67-61.5,58
	C3411.57,1443.58,3411.57,1465.91,3411.57,1488.24z"/>
<path class="st11" d="M3296.94,1485.74c20.67-20.67,41.33-41.33,62-62c-0.17-21-0.33-42-0.5-63c-20.5,19.33-41,38.67-61.5,58
	C3296.94,1441.08,3296.94,1463.41,3296.94,1485.74z"/>
<rect x="3283.44" y="1040.74" class="st9" width="75" height="172"/>
<rect x="3168.82" y="1040.74" class="st9" width="75" height="172"/>
<rect x="3522.82" y="1040.74" class="st9" width="75" height="172"/>
<rect x="3398.07" y="1040.74" class="st9" width="75" height="172"/>
<rect x="3168.82" y="1040.74" class="st5" width="13.5" height="172"/>
<rect x="3283.44" y="1040.74" class="st5" width="13.5" height="172"/>
<rect x="3398.07" y="1040.74" class="st5" width="13.5" height="172"/>
<rect x="3522.82" y="1040.74" class="st5" width="13.5" height="172"/>
<rect x="3509.32" y="1212.74" class="st10" width="88.5" height="18"/>
<rect x="3384.57" y="1212.74" class="st10" width="88.5" height="18"/>
<rect x="3269.94" y="1212.74" class="st10" width="88.5" height="18"/>
<rect x="3155.32" y="1212.74" class="st10" width="88.5" height="18"/>
<rect x="3225.82" y="1212.74" class="st14" width="18" height="18"/>
<rect x="3340.44" y="1212.74" class="st14" width="18" height="18"/>
<rect x="3455.07" y="1212.74" class="st14" width="18" height="18"/>
<rect x="3579.82" y="1212.74" class="st5" width="18" height="18"/>
<rect x="3168.82" y="1230.74" class="st5" width="75" height="10"/>
<rect x="3283.44" y="1230.74" class="st5" width="75" height="10"/>
<rect x="3398.07" y="1230.74" class="st5" width="75" height="10"/>
<rect x="3522.82" y="1230.74" class="st5" width="75" height="10"/>
<path class="st11" d="M3182.32,1186.74c20.67-20.67,41.33-41.33,62-62c-0.17-21-0.33-42-0.5-63c-20.5,19.33-41,38.67-61.5,58
	C3182.32,1142.08,3182.32,1164.41,3182.32,1186.74z"/>
<path class="st11" d="M3536.32,1189.24c20.67-20.67,41.33-41.33,62-62c-0.17-21-0.33-42-0.5-63c-20.5,19.33-41,38.67-61.5,58
	C3536.32,1144.58,3536.32,1166.91,3536.32,1189.24z"/>
<path class="st11" d="M3411.57,1189.24c20.67-20.67,41.33-41.33,62-62c-0.17-21-0.33-42-0.5-63c-20.5,19.33-41,38.67-61.5,58
	C3411.57,1144.58,3411.57,1166.91,3411.57,1189.24z"/>
<path class="st11" d="M3296.94,1186.74c20.67-20.67,41.33-41.33,62-62c-0.17-21-0.33-42-0.5-63c-20.5,19.33-41,38.67-61.5,58
	C3296.94,1142.08,3296.94,1164.41,3296.94,1186.74z"/>
<rect x="3111.19" y="980.71" class="st12" width="537.12" height="22.03"/>
<rect x="3648.32" y="980.71" width="156.1" height="22.03"/>
<rect x="3318.55" y="1655.88" class="st12" width="184.22" height="381.42"/>
<path class="st5" d="M3603.55,2037.31c-67.67,0-135.35,0-203.02,0c56.99-80.83,113.97-161.66,170.96-242.49c11.17,0,22.33,0,33.5,0
	C3604.51,1875.64,3604.03,1956.47,3603.55,2037.31z"/>
<path class="st5" d="M3315.58,2037.57c-66.52,0-133.05,0-199.57,0c56.02-80.83,112.04-161.66,168.05-242.49c10.98,0,21.95,0,32.93,0
	C3316.52,1875.91,3316.05,1956.74,3315.58,2037.57z"/>
<path class="st10" d="M3117.9,2037.84c56.11-81.01,112.23-162.02,168.34-243.03c-15.09,0.09-30.19,0.18-45.28,0.27
	c-41.65,63.49-83.3,126.99-124.95,190.48C3116.64,2002.99,3117.27,2020.41,3117.9,2037.84z"/>
<rect x="3228.02" y="1934.64" class="st9" width="208.61" height="54.6"/>
<rect x="3116" y="1989.51" class="st4" width="36.1" height="48.06"/>
<rect x="3186.55" y="1989.25" class="st12" width="213.98" height="48.06"/>
<rect x="3257.38" y="1880.04" class="st4" width="211.19" height="54.6"/>
<path class="st10" d="M3402.43,2037.57c56.11-81.01,112.23-162.02,168.34-243.03c-15.09,0.09-30.19,0.18-45.28,0.27
	c-41.65,63.49-83.3,126.99-124.95,190.48C3401.17,2002.72,3401.8,2020.15,3402.43,2037.57z"/>
<rect x="3400.54" y="1989.25" class="st4" width="36.1" height="48.06"/>
<rect x="2425.67" y="949.15" class="st6" width="742.77" height="37.93"/>
<rect x="3652.8" y="638.27" class="st5" width="151.62" height="310.07"/>
<rect x="3115.68" y="654.34" class="st4" width="537.12" height="294"/>
<rect x="3652.8" y="600.34" class="st8" width="178.46" height="37.93"/>
<rect x="3287.93" y="692.34" class="st9" width="75" height="172"/>
<rect x="3173.3" y="692.34" class="st9" width="75" height="172"/>
<rect x="3527.3" y="692.34" class="st9" width="75" height="172"/>
<rect x="3402.55" y="692.34" class="st9" width="75" height="172"/>
<rect x="3173.3" y="692.34" class="st5" width="13.5" height="172"/>
<rect x="3287.93" y="692.34" class="st14" width="13.5" height="172"/>
<rect x="3402.55" y="692.34" class="st5" width="13.5" height="172"/>
<rect x="3527.3" y="692.34" class="st5" width="13.5" height="172"/>
<rect x="3516.49" y="844.2" class="st10" width="88.5" height="18"/>
<rect x="3391.74" y="844.2" class="st10" width="88.5" height="18"/>
<rect x="3277.12" y="844.2" class="st10" width="88.5" height="18"/>
<rect x="3162.49" y="844.2" class="st10" width="88.5" height="18"/>
<rect x="3232.99" y="844.2" class="st5" width="18" height="18"/>
<rect x="3347.62" y="844.2" class="st14" width="18" height="18"/>
<rect x="3462.24" y="844.2" class="st14" width="18" height="18"/>
<rect x="3586.99" y="844.2" class="st5" width="18" height="18"/>
<rect x="3175.99" y="862.2" class="st5" width="75" height="10"/>
<rect x="3290.62" y="862.2" class="st5" width="75" height="10"/>
<rect x="3405.24" y="862.2" class="st5" width="75" height="10"/>
<rect x="3529.99" y="862.2" class="st14" width="75" height="10"/>
<path class="st11" d="M3186.8,838.34c20.67-20.67,41.33-41.33,62-62c-0.17-21-0.33-42-0.5-63c-20.5,19.33-41,38.67-61.5,58
	C3186.8,793.67,3186.8,816.01,3186.8,838.34z"/>
<path class="st11" d="M3540.8,840.84c20.67-20.67,41.33-41.33,62-62c-0.17-21-0.33-42-0.5-63c-20.5,19.33-41,38.67-61.5,58
	C3540.8,796.17,3540.8,818.51,3540.8,840.84z"/>
<path class="st11" d="M3416.05,840.84c20.67-20.67,41.33-41.33,62-62c-0.17-21-0.33-42-0.5-63c-20.5,19.33-41,38.67-61.5,58
	C3416.05,796.17,3416.05,818.51,3416.05,840.84z"/>
<path class="st11" d="M3301.43,838.34c20.67-20.67,41.33-41.33,62-62c-0.17-21-0.33-42-0.5-63c-20.5,19.33-41,38.67-61.5,58
	C3301.43,793.67,3301.43,816.01,3301.43,838.34z"/>
<rect x="3116" y="631.15" class="st12" width="537.12" height="22.03"/>
<rect x="3652.8" y="632.31" width="156.1" height="22.03"/>
<rect x="3088.49" y="600.34" class="st6" width="742.77" height="37.93"/>
<rect x="3311.04" y="1654.21" class="st5" width="58.81" height="224.56"/>
<rect x="2641.47" y="1655.48" class="st5" width="42.7" height="224.78"/>
<rect x="2989.98" y="949.49" class="st7" width="125.7" height="37.23"/>
<rect x="2989.98" y="833.94" class="st7" width="125.7" height="37.23"/>
<rect x="3648.32" y="1281.15" class="st7" width="178.46" height="43.01"/>
<rect x="3084.01" y="948.34" class="st6" width="742.77" height="38.33"/>
<rect x="3652.8" y="948.34" class="st7" width="171.73" height="38.76"/>
<rect x="3652.8" y="600.69" class="st7" width="178.46" height="37.58"/>
<rect x="2989.98" y="872.2" width="125.7" height="10.97"/>
<rect x="2516.22" y="872.2" class="st12" width="473.76" height="11.44"/>
<rect x="1942.09" y="543.29" class="st15" width="67.54" height="57.58"/>
<rect x="1942.09" y="1311.74" class="st15" width="67.54" height="57.58"/>
<rect x="1941.97" y="1225.74" class="st15" width="67.54" height="57.58"/>
<rect x="1941.97" y="1141.12" class="st15" width="67.54" height="57.58"/>
<rect x="1941.97" y="1056.51" class="st15" width="67.54" height="57.58"/>
<rect x="1941.97" y="971.9" class="st15" width="67.54" height="57.58"/>
<rect x="1941.97" y="887.29" class="st15" width="67.54" height="57.58"/>
<rect x="1942.09" y="801.29" class="st15" width="67.54" height="57.58"/>
<rect x="1942.09" y="715.29" class="st15" width="67.54" height="57.58"/>
<rect x="1941.97" y="629.29" class="st15" width="67.54" height="57.58"/>
<rect x="1941.96" y="1741.74" class="st15" width="67.54" height="57.58"/>
<rect x="1942.09" y="1655.74" class="st15" width="67.54" height="57.58"/>
<rect x="1942.09" y="1569.74" class="st15" width="67.54" height="57.58"/>
<rect x="1941.96" y="1483.74" class="st15" width="67.54" height="57.58"/>
<rect x="2360.38" y="541.9" class="st15" width="42.83" height="57.58"/>
<rect x="2360.38" y="1310.35" class="st15" width="42.83" height="57.58"/>
<rect x="2360.3" y="1224.35" class="st15" width="42.83" height="57.58"/>
<rect x="2360.3" y="1139.74" class="st15" width="42.83" height="57.58"/>
<rect x="2360.3" y="1055.12" class="st15" width="42.83" height="57.58"/>
<rect x="2360.3" y="970.51" class="st15" width="42.83" height="57.58"/>
<rect x="2360.3" y="885.9" class="st15" width="42.83" height="57.58"/>
<rect x="2360.38" y="799.9" class="st15" width="42.83" height="57.58"/>
<rect x="2360.38" y="713.9" class="st15" width="42.83" height="57.58"/>
<rect x="2360.3" y="627.9" class="st15" width="42.83" height="57.58"/>
<rect x="2360.29" y="1740.35" class="st15" width="42.83" height="57.58"/>
<rect x="2360.38" y="1654.35" class="st15" width="42.83" height="57.58"/>
<rect x="2360.38" y="1568.35" class="st15" width="42.83" height="57.58"/>
<rect x="2360.29" y="1482.35" class="st15" width="42.83" height="57.58"/>
<rect x="1941.96" y="1394.85" class="st15" width="67.54" height="57.58"/>
<rect x="2360.29" y="1396.35" class="st15" width="42.83" height="57.58"/>
<rect x="1687.42" y="383.86" class="st1" width="656.41" height="73.08"/>
<rect x="1687.42" y="383.86" class="st3" width="445.42" height="73.08"/>
<rect x="851.53" y="748.65" class="st6" width="762.45" height="1274.38"/>
<rect x="662.94" y="766.72" class="st16" width="210.38" height="1256.27"/>
<g>
	<rect x="1434.74" y="828.7" class="st17" width="100.59" height="100.59"/>
	<rect x="971.35" y="821.91" class="st17" width="100.59" height="100.59"/>
	<rect x="1203.05" y="827.39" class="st17" width="100.59" height="100.59"/>
</g>
<g>
	<rect x="1438.23" y="1077.75" class="st17" width="100.59" height="100.59"/>
	<rect x="974.85" y="1070.96" class="st17" width="100.59" height="100.59"/>
	<rect x="1206.54" y="1076.44" class="st17" width="100.59" height="100.59"/>
</g>
<g>
	<rect x="1438.23" y="1326.8" class="st17" width="100.59" height="100.59"/>
	<rect x="974.85" y="1320.01" class="st17" width="100.59" height="100.59"/>
	<rect x="1206.54" y="1325.49" class="st17" width="100.59" height="100.59"/>
</g>
<rect x="871.87" y="712.7" class="st18" width="769.93" height="59.99"/>
<rect x="619.04" y="712.7" class="st19" width="252.83" height="59.99"/>
<rect x="982.95" y="917.01" class="st18" width="102.5" height="10.97"/>
<rect x="1212.24" y="916.34" class="st18" width="102.5" height="10.97"/>
<rect x="1449.51" y="916.34" class="st18" width="102.5" height="10.97"/>
<rect x="986.6" y="1409.74" class="st18" width="102.5" height="10.97"/>
<rect x="1215.89" y="1409.07" class="st18" width="102.5" height="10.97"/>
<rect x="1453.16" y="1409.07" class="st18" width="102.5" height="10.97"/>
<g>
	<rect x="990.58" y="1163.38" class="st18" width="102.5" height="10.97"/>
	<rect x="1219.88" y="1162.7" class="st18" width="102.5" height="10.97"/>
	<rect x="1457.15" y="1162.7" class="st18" width="102.5" height="10.97"/>
</g>
<rect x="1226.5" y="1556.65" class="st20" width="173.75" height="304.82"/>
<rect x="1167.71" y="1556.65" class="st21" width="65.69" height="304.82"/>
<rect x="913.63" y="1998.07" class="st18" width="728.17" height="80.01"/>
<rect x="986" y="1926.53" class="st16" width="603.49" height="71.41"/>
<rect x="1061.77" y="1846.59" class="st22" width="444.41" height="79.7"/>
<rect x="1050.36" y="1846.59" width="22.83" height="79.7"/>
<rect x="984.16" y="1928" class="st23" width="30.27" height="68.6"/>
<rect x="889.72" y="1998.07" class="st24" width="23.91" height="80.01"/>
</svg>
